<svg id="wave" style="transform:rotate(180deg); transition: 0.3s" viewBox="0 0 1440 170" version="1.1" xmlns="http://www.w3.org/2000/svg"><defs><linearGradient id="sw-gradient-0" x1="0" x2="0" y1="1" y2="0"><stop stop-color="rgba(104, 98, 225, 1)" offset="0%"></stop><stop stop-color="rgba(93, 63, 162, 1)" offset="100%"></stop></linearGradient></defs><path style="transform:translate(0, 0px); opacity:0.4" fill="url(#sw-gradient-0)" d="M0,0L21.8,19.8C43.6,40,87,79,131,90.7C174.5,102,218,85,262,73.7C305.5,62,349,57,393,65.2C436.4,74,480,96,524,96.3C567.3,96,611,74,655,76.5C698.2,79,742,108,785,107.7C829.1,108,873,79,916,82.2C960,85,1004,119,1047,130.3C1090.9,142,1135,130,1178,121.8C1221.8,113,1265,108,1309,90.7C1352.7,74,1396,45,1440,39.7C1483.6,34,1527,51,1571,51C1614.5,51,1658,34,1702,22.7C1745.5,11,1789,6,1833,22.7C1876.4,40,1920,79,1964,102C2007.3,125,2051,130,2095,133.2C2138.2,136,2182,136,2225,121.8C2269.1,108,2313,79,2356,65.2C2400,51,2444,51,2487,56.7C2530.9,62,2575,74,2618,90.7C2661.8,108,2705,130,2749,133.2C2792.7,136,2836,119,2880,116.2C2923.6,113,2967,125,3011,127.5C3054.5,130,3098,125,3120,121.8L3141.8,119L3141.8,170L3120,170C3098.2,170,3055,170,3011,170C2967.3,170,2924,170,2880,170C2836.4,170,2793,170,2749,170C2705.5,170,2662,170,2618,170C2574.5,170,2531,170,2487,170C2443.6,170,2400,170,2356,170C2312.7,170,2269,170,2225,170C2181.8,170,2138,170,2095,170C2050.9,170,2007,170,1964,170C1920,170,1876,170,1833,170C1789.1,170,1745,170,1702,170C1658.2,170,1615,170,1571,170C1527.3,170,1484,170,1440,170C1396.4,170,1353,170,1309,170C1265.5,170,1222,170,1178,170C1134.5,170,1091,170,1047,170C1003.6,170,960,170,916,170C872.7,170,829,170,785,170C741.8,170,698,170,655,170C610.9,170,567,170,524,170C480,170,436,170,393,170C349.1,170,305,170,262,170C218.2,170,175,170,131,170C87.3,170,44,170,22,170L0,170Z"></path><defs><linearGradient id="sw-gradient-1" x1="0" x2="0" y1="1" y2="0"><stop stop-color="rgba(27, 27, 27, 1)" offset="0%"></stop><stop stop-color="rgba(27, 27, 27, 1)" offset="100%"></stop></linearGradient></defs><path style="transform:translate(0, 50px); opacity:0.9" fill="url(#sw-gradient-1)" d="M0,0L21.8,25.5C43.6,51,87,102,131,102C174.5,102,218,51,262,36.8C305.5,23,349,45,393,53.8C436.4,62,480,57,524,45.3C567.3,34,611,17,655,28.3C698.2,40,742,79,785,82.2C829.1,85,873,51,916,53.8C960,57,1004,96,1047,93.5C1090.9,91,1135,45,1178,36.8C1221.8,28,1265,57,1309,73.7C1352.7,91,1396,96,1440,85C1483.6,74,1527,45,1571,36.8C1614.5,28,1658,40,1702,42.5C1745.5,45,1789,40,1833,39.7C1876.4,40,1920,45,1964,45.3C2007.3,45,2051,40,2095,53.8C2138.2,68,2182,102,2225,107.7C2269.1,113,2313,91,2356,73.7C2400,57,2444,45,2487,42.5C2530.9,40,2575,45,2618,53.8C2661.8,62,2705,74,2749,87.8C2792.7,102,2836,119,2880,113.3C2923.6,108,2967,79,3011,70.8C3054.5,62,3098,74,3120,79.3L3141.8,85L3141.8,170L3120,170C3098.2,170,3055,170,3011,170C2967.3,170,2924,170,2880,170C2836.4,170,2793,170,2749,170C2705.5,170,2662,170,2618,170C2574.5,170,2531,170,2487,170C2443.6,170,2400,170,2356,170C2312.7,170,2269,170,2225,170C2181.8,170,2138,170,2095,170C2050.9,170,2007,170,1964,170C1920,170,1876,170,1833,170C1789.1,170,1745,170,1702,170C1658.2,170,1615,170,1571,170C1527.3,170,1484,170,1440,170C1396.4,170,1353,170,1309,170C1265.5,170,1222,170,1178,170C1134.5,170,1091,170,1047,170C1003.6,170,960,170,916,170C872.7,170,829,170,785,170C741.8,170,698,170,655,170C610.9,170,567,170,524,170C480,170,436,170,393,170C349.1,170,305,170,262,170C218.2,170,175,170,131,170C87.3,170,44,170,22,170L0,170Z"></path></svg>