<svg width="100%" height="100%" id="svg" viewBox="0 0 1440 400" xmlns="http://www.w3.org/2000/svg" class="transition duration-300 ease-in-out delay-150"><defs><linearGradient id="gradient" x1="68%" y1="3%" x2="32%" y2="97%"><stop offset="5%" stop-color="#5d3fa266"></stop><stop offset="95%" stop-color="#35353566"></stop></linearGradient></defs><path d="M 0,400 C 0,400 0,100 0,100 C 85.87907935417383,112.38062521470285 171.75815870834765,124.76125042940569 237,129 C 302.24184129165235,133.2387495705943 346.84644452078317,129.33562349708006 398,121 C 449.15355547921683,112.66437650291995 506.85606320851946,99.89625558227412 585,95 C 663.1439367914805,90.10374441772588 761.729302645139,93.07935417382343 841,89 C 920.270697354861,84.92064582617657 980.2267262109242,73.78632772243215 1036,83 C 1091.7732737890758,92.21367227756785 1143.3637925111645,121.77533493644796 1210,128 C 1276.6362074888355,134.22466506355204 1358.3181037444178,117.11233253177602 1440,100 C 1440,100 1440,400 1440,400 Z" stroke="none" stroke-width="0" fill="url(#gradient)" class="transition-all duration-300 ease-in-out delay-150 path-0"></path><defs><linearGradient id="gradient" x1="68%" y1="3%" x2="32%" y2="97%"><stop offset="5%" stop-color="#5d3fa288"></stop><stop offset="95%" stop-color="#35353588"></stop></linearGradient></defs><path d="M 0,400 C 0,400 0,200 0,200 C 56.12847818619031,189.33699759532806 112.25695637238061,178.67399519065611 193,182 C 273.7430436276194,185.32600480934389 379.1006526966678,202.64101683270354 446,207 C 512.8993473033322,211.35898316729646 541.3404328409481,202.7619374785297 597,206 C 652.6595671590519,209.2380625214703 735.5376159395398,224.31123325317765 805,235 C 874.4623840604602,245.68876674682235 930.5091034008931,251.99312950875986 1001,234 C 1071.490896599107,216.00687049124014 1156.4259704568876,173.7162487117829 1232,164 C 1307.5740295431124,154.2837512882171 1373.7870147715562,177.14187564410855 1440,200 C 1440,200 1440,400 1440,400 Z" stroke="none" stroke-width="0" fill="url(#gradient)" class="transition-all duration-300 ease-in-out delay-150 path-1"></path><defs><linearGradient id="gradient" x1="68%" y1="3%" x2="32%" y2="97%"><stop offset="5%" stop-color="#5d3fa2ff"></stop><stop offset="95%" stop-color="#353535ff"></stop></linearGradient></defs><path d="M 0,400 C 0,400 0,300 0,300 C 75.3940226726211,286.75369288904153 150.7880453452422,273.5073857780831 226,264 C 301.2119546547578,254.49261422191688 376.24184129165224,248.72414977670906 447,264 C 517.7581587083478,279.27585022329094 584.2445894881483,315.5960151150807 650,318 C 715.7554105118517,320.4039848849193 780.7798007557542,288.8917897629681 842,284 C 903.2201992442458,279.1082102370319 960.6362074888352,300.83682583304704 1026,313 C 1091.3637925111648,325.16317416695296 1164.6753692889042,327.7609069048437 1235,324 C 1305.3246307110958,320.2390930951563 1372.662315355548,310.1195465475781 1440,300 C 1440,300 1440,400 1440,400 Z" stroke="none" stroke-width="0" fill="url(#gradient)" class="transition-all duration-300 ease-in-out delay-150 path-2"></path></svg>