<svg id="wave" style="transform:rotate(0deg); transition: 0.3s" viewBox="0 0 1440 180" version="1.1" xmlns="http://www.w3.org/2000/svg"><defs><linearGradient id="sw-gradient-0" x1="0" x2="0" y1="1" y2="0"><stop stop-color="rgba(104, 98, 225, 1)" offset="0%"></stop><stop stop-color="rgba(93, 63, 162, 1)" offset="100%"></stop></linearGradient></defs><path style="transform:translateY(4rem); opacity:1" fill="url(#sw-gradient-0)" d="M0,108L72,126L144,108L216,90L288,126L360,108L432,36L504,90L576,72L648,72L720,18L792,90L864,36L936,108L1008,0L1080,162L1152,144L1224,144L1296,72L1368,54L1440,18L1512,0L1584,162L1656,0L1728,72L1728,180L1656,180L1584,180L1512,180L1440,180L1368,180L1296,180L1224,180L1152,180L1080,180L1008,180L936,180L864,180L792,180L720,180L648,180L576,180L504,180L432,180L360,180L288,180L216,180L144,180L72,180L0,180Z"></path><defs><linearGradient id="sw-gradient-1" x1="0" x2="0" y1="1" y2="0"><stop stop-color="rgba(27, 27, 27, 1)" offset="0%"></stop><stop stop-color="rgba(26, 40, 106, 1)" offset="100%"></stop></linearGradient></defs><path style="transform:translate(0, 50px); opacity:" fill="url(#sw-gradient-1)" d="M0,162L72,144L144,108L216,126L288,36L360,144L432,18L504,162L576,162L648,36L720,108L792,126L864,90L936,0L1008,162L1080,72L1152,54L1224,126L1296,36L1368,162L1440,0L1512,18L1584,144L1656,0L1728,126L1728,180L1656,180L1584,180L1512,180L1440,180L1368,180L1296,180L1224,180L1152,180L1080,180L1008,180L936,180L864,180L792,180L720,180L648,180L576,180L504,180L432,180L360,180L288,180L216,180L144,180L72,180L0,180Z"></path><defs><linearGradient id="sw-gradient-2" x1="0" x2="0" y1="1" y2="0"><stop stop-color="rgba(27, 27, 27, 1)" offset="0%"></stop><stop stop-color="rgba(27, 27, 27, 1)" offset="100%"></stop></linearGradient></defs><path style="transform:translate(0, 100px); opacity:1" fill="url(#sw-gradient-2)" d="M0,0L72,72L144,18L216,18L288,108L360,126L432,54L504,54L576,18L648,162L720,108L792,18L864,144L936,162L1008,36L1080,144L1152,54L1224,54L1296,90L1368,18L1440,0L1512,144L1584,72L1656,36L1728,126L1728,180L1656,180L1584,180L1512,180L1440,180L1368,180L1296,180L1224,180L1152,180L1080,180L1008,180L936,180L864,180L792,180L720,180L648,180L576,180L504,180L432,180L360,180L288,180L216,180L144,180L72,180L0,180Z"></path></svg>