<svg id="wave" style="transform:rotate(180deg); transition: 0.3s" viewBox="0 0 1440 170" version="1.1" xmlns="http://www.w3.org/2000/svg"><defs><linearGradient id="sw-gradient-0" x1="0" x2="0" y1="1" y2="0"><stop stop-color="rgba(104, 98, 225, 1)" offset="0%"></stop><stop stop-color="rgba(93, 63, 162, 1)" offset="100%"></stop></linearGradient></defs><path style="transform:translate(0, 0px); opacity:1" fill="url(#sw-gradient-0)" d="M0,0L26.7,0C53.3,0,107,0,160,19.8C213.3,40,267,79,320,99.2C373.3,119,427,119,480,107.7C533.3,96,587,74,640,68C693.3,62,747,74,800,87.8C853.3,102,907,119,960,113.3C1013.3,108,1067,79,1120,70.8C1173.3,62,1227,74,1280,79.3C1333.3,85,1387,85,1440,93.5C1493.3,102,1547,119,1600,127.5C1653.3,136,1707,136,1760,116.2C1813.3,96,1867,57,1920,48.2C1973.3,40,2027,62,2080,59.5C2133.3,57,2187,28,2240,19.8C2293.3,11,2347,23,2400,45.3C2453.3,68,2507,102,2560,99.2C2613.3,96,2667,57,2720,45.3C2773.3,34,2827,51,2880,56.7C2933.3,62,2987,57,3040,56.7C3093.3,57,3147,62,3200,79.3C3253.3,96,3307,125,3360,119C3413.3,113,3467,74,3520,51C3573.3,28,3627,23,3680,34C3733.3,45,3787,74,3813,87.8L3840,102L3840,170L3813.3,170C3786.7,170,3733,170,3680,170C3626.7,170,3573,170,3520,170C3466.7,170,3413,170,3360,170C3306.7,170,3253,170,3200,170C3146.7,170,3093,170,3040,170C2986.7,170,2933,170,2880,170C2826.7,170,2773,170,2720,170C2666.7,170,2613,170,2560,170C2506.7,170,2453,170,2400,170C2346.7,170,2293,170,2240,170C2186.7,170,2133,170,2080,170C2026.7,170,1973,170,1920,170C1866.7,170,1813,170,1760,170C1706.7,170,1653,170,1600,170C1546.7,170,1493,170,1440,170C1386.7,170,1333,170,1280,170C1226.7,170,1173,170,1120,170C1066.7,170,1013,170,960,170C906.7,170,853,170,800,170C746.7,170,693,170,640,170C586.7,170,533,170,480,170C426.7,170,373,170,320,170C266.7,170,213,170,160,170C106.7,170,53,170,27,170L0,170Z"></path><defs><linearGradient id="sw-gradient-1" x1="0" x2="0" y1="1" y2="0"><stop stop-color="rgba(27, 27, 27, 1)" offset="0%"></stop><stop stop-color="rgba(27, 27, 27, 1)" offset="100%"></stop></linearGradient></defs><path style="transform:translate(0, 50px); opacity:1" fill="url(#sw-gradient-1)" d="M0,136L26.7,124.7C53.3,113,107,91,160,73.7C213.3,57,267,45,320,42.5C373.3,40,427,45,480,42.5C533.3,40,587,28,640,34C693.3,40,747,62,800,59.5C853.3,57,907,28,960,36.8C1013.3,45,1067,91,1120,110.5C1173.3,130,1227,125,1280,102C1333.3,79,1387,40,1440,28.3C1493.3,17,1547,34,1600,34C1653.3,34,1707,17,1760,31.2C1813.3,45,1867,91,1920,104.8C1973.3,119,2027,102,2080,87.8C2133.3,74,2187,62,2240,65.2C2293.3,68,2347,85,2400,79.3C2453.3,74,2507,45,2560,53.8C2613.3,62,2667,108,2720,121.8C2773.3,136,2827,119,2880,102C2933.3,85,2987,68,3040,76.5C3093.3,85,3147,119,3200,116.2C3253.3,113,3307,74,3360,51C3413.3,28,3467,23,3520,34C3573.3,45,3627,74,3680,73.7C3733.3,74,3787,45,3813,31.2L3840,17L3840,170L3813.3,170C3786.7,170,3733,170,3680,170C3626.7,170,3573,170,3520,170C3466.7,170,3413,170,3360,170C3306.7,170,3253,170,3200,170C3146.7,170,3093,170,3040,170C2986.7,170,2933,170,2880,170C2826.7,170,2773,170,2720,170C2666.7,170,2613,170,2560,170C2506.7,170,2453,170,2400,170C2346.7,170,2293,170,2240,170C2186.7,170,2133,170,2080,170C2026.7,170,1973,170,1920,170C1866.7,170,1813,170,1760,170C1706.7,170,1653,170,1600,170C1546.7,170,1493,170,1440,170C1386.7,170,1333,170,1280,170C1226.7,170,1173,170,1120,170C1066.7,170,1013,170,960,170C906.7,170,853,170,800,170C746.7,170,693,170,640,170C586.7,170,533,170,480,170C426.7,170,373,170,320,170C266.7,170,213,170,160,170C106.7,170,53,170,27,170L0,170Z"></path><defs><linearGradient id="sw-gradient-2" x1="0" x2="0" y1="1" y2="0"><stop stop-color="rgba(0, 0, 0, 1)" offset="0%"></stop><stop stop-color="rgba(0, 0, 0, 1)" offset="100%"></stop></linearGradient></defs><path style="transform:translate(0, 100px); opacity:0.9" fill="url(#sw-gradient-2)" d="M0,136L26.7,127.5C53.3,119,107,102,160,96.3C213.3,91,267,96,320,107.7C373.3,119,427,136,480,138.8C533.3,142,587,130,640,130.3C693.3,130,747,142,800,138.8C853.3,136,907,119,960,107.7C1013.3,96,1067,91,1120,76.5C1173.3,62,1227,40,1280,34C1333.3,28,1387,40,1440,39.7C1493.3,40,1547,28,1600,42.5C1653.3,57,1707,96,1760,99.2C1813.3,102,1867,68,1920,45.3C1973.3,23,2027,11,2080,8.5C2133.3,6,2187,11,2240,19.8C2293.3,28,2347,40,2400,51C2453.3,62,2507,74,2560,87.8C2613.3,102,2667,119,2720,130.3C2773.3,142,2827,147,2880,141.7C2933.3,136,2987,119,3040,119C3093.3,119,3147,136,3200,124.7C3253.3,113,3307,74,3360,53.8C3413.3,34,3467,34,3520,31.2C3573.3,28,3627,23,3680,22.7C3733.3,23,3787,28,3813,31.2L3840,34L3840,170L3813.3,170C3786.7,170,3733,170,3680,170C3626.7,170,3573,170,3520,170C3466.7,170,3413,170,3360,170C3306.7,170,3253,170,3200,170C3146.7,170,3093,170,3040,170C2986.7,170,2933,170,2880,170C2826.7,170,2773,170,2720,170C2666.7,170,2613,170,2560,170C2506.7,170,2453,170,2400,170C2346.7,170,2293,170,2240,170C2186.7,170,2133,170,2080,170C2026.7,170,1973,170,1920,170C1866.7,170,1813,170,1760,170C1706.7,170,1653,170,1600,170C1546.7,170,1493,170,1440,170C1386.7,170,1333,170,1280,170C1226.7,170,1173,170,1120,170C1066.7,170,1013,170,960,170C906.7,170,853,170,800,170C746.7,170,693,170,640,170C586.7,170,533,170,480,170C426.7,170,373,170,320,170C266.7,170,213,170,160,170C106.7,170,53,170,27,170L0,170Z"></path></svg>